<svg width="209" height="38" viewBox="0 0 209 38" fill="none" xmlns="http://www.w3.org/2000/svg">
<path d="M17.5385 11.4531H9.28605C8.6795 11.4531 8.18785 11.9413 8.18785 12.5435C8.18785 13.1456 8.6795 13.6338 9.28605 13.6338H17.5385C18.1449 13.6338 18.6367 13.1456 18.6367 12.5435C18.6367 11.9413 18.1449 11.4531 17.5385 11.4531Z" fill="#6776FF"/>
<path d="M5.43829 8.12153C5.43829 7.51936 5.92998 7.03125 6.53649 7.03125H29.0262C29.6327 7.03125 30.1244 7.51936 30.1244 8.12153C30.1244 8.72371 29.6327 9.21188 29.0262 9.21188H6.53649C5.92998 9.21188 5.43829 8.72371 5.43829 8.12153Z" fill="#6776FF"/>
<path d="M21.3882 29.1406H6.53649C5.92998 29.1406 5.43829 29.6288 5.43829 30.231C5.43829 30.8331 5.92998 31.3213 6.53649 31.3213H21.3882C21.9947 31.3213 22.4864 30.8331 22.4864 30.231C22.4864 29.6288 21.9947 29.1406 21.3882 29.1406Z" fill="#6776FF"/>
<path d="M16.7442 15.875H5.19211C4.58559 15.875 4.0939 16.3631 4.0939 16.9653C4.0939 17.5675 4.58559 18.0556 5.19211 18.0556H16.7442C17.3507 18.0556 17.8424 17.5675 17.8424 16.9653C17.8424 16.3631 17.3507 15.875 16.7442 15.875Z" fill="#6776FF"/>
<path d="M15.9748 20.293H7.70947C7.10196 20.293 6.60948 20.7819 6.60948 21.385C6.60948 21.9881 7.10196 22.477 7.70947 22.477H15.9748C16.5823 22.477 17.0747 21.9881 17.0747 21.385C17.0747 20.7819 16.5823 20.293 15.9748 20.293Z" fill="#6776FF"/>
<path d="M3.30642 20.293H1.09993C0.492457 20.293 0 20.7819 0 21.385C0 21.9881 0.492457 22.477 1.09993 22.477H3.30642C3.9139 22.477 4.40636 21.9881 4.40636 21.385C4.40636 20.7819 3.9139 20.293 3.30642 20.293Z" fill="#6776FF"/>
<path d="M6.36766 24.7188H4.71196C4.10449 24.7188 3.61203 25.2077 3.61203 25.8107C3.61203 26.4139 4.10449 26.9027 4.71196 26.9027H6.36766C6.97513 26.9027 7.46762 26.4139 7.46762 25.8107C7.46762 25.2077 6.97513 24.7188 6.36766 24.7188Z" fill="#6776FF"/>
<path d="M15.1804 24.7188H10.7708C10.1633 24.7188 9.67084 25.2077 9.67084 25.8107C9.67084 26.4139 10.1633 26.9027 10.7708 26.9027H15.1804C15.7879 26.9027 16.2803 26.4139 16.2803 25.8107C16.2803 25.2077 15.7879 24.7188 15.1804 24.7188Z" fill="#6776FF"/>
<path fill-rule="evenodd" clip-rule="evenodd" d="M22.0637 0.392829C20.9486 -0.522195 19.2638 0.263275 19.2638 1.69815V9.20873H31.1631L30.5245 13.0412H22.9145L22.2227 17.3277H27.9169L27.2783 21.0182H21.5841L20.2537 29.1373H19.2638V36.2996C19.2638 37.7578 20.9965 38.5373 22.1019 37.5764L42.5771 19.776C43.3688 19.0878 43.3507 17.8599 42.539 17.1939L31.6752 8.2795L22.0637 0.392829Z" fill="#6776FF"/>
<path d="M65.1595 9.456V12.62H57.0115V17.632H63.2555V20.74H57.0115V29H53.0915V9.456H65.1595ZM66.4604 21.188C66.4604 19.62 66.7684 18.2293 67.3844 17.016C68.019 15.8027 68.8684 14.8693 69.9324 14.216C71.015 13.5627 72.219 13.236 73.5444 13.236C74.7017 13.236 75.7097 13.4693 76.5684 13.936C77.4457 14.4027 78.1457 14.9907 78.6684 15.7V13.488H82.6164V29H78.6684V26.732C78.1644 27.46 77.4644 28.0667 76.5684 28.552C75.691 29.0187 74.6737 29.252 73.5164 29.252C72.2097 29.252 71.015 28.916 69.9324 28.244C68.8684 27.572 68.019 26.6293 67.3844 25.416C66.7684 24.184 66.4604 22.7747 66.4604 21.188ZM78.6684 21.244C78.6684 20.292 78.4817 19.48 78.1084 18.808C77.735 18.1173 77.231 17.5947 76.5964 17.24C75.9617 16.8667 75.2804 16.68 74.5524 16.68C73.8244 16.68 73.1524 16.8573 72.5364 17.212C71.9204 17.5667 71.4164 18.0893 71.0244 18.78C70.651 19.452 70.4644 20.2547 70.4644 21.188C70.4644 22.1213 70.651 22.9427 71.0244 23.652C71.4164 24.3427 71.9204 24.8747 72.5364 25.248C73.171 25.6213 73.843 25.808 74.5524 25.808C75.2804 25.808 75.9617 25.6307 76.5964 25.276C77.231 24.9027 77.735 24.38 78.1084 23.708C78.4817 23.0173 78.6684 22.196 78.6684 21.244ZM91.9102 29.252C90.6408 29.252 89.5022 29.028 88.4942 28.58C87.4862 28.1133 86.6835 27.488 86.0862 26.704C85.5075 25.92 85.1902 25.052 85.1342 24.1H89.0822C89.1568 24.6973 89.4462 25.192 89.9502 25.584C90.4728 25.976 91.1168 26.172 91.8822 26.172C92.6288 26.172 93.2075 26.0227 93.6182 25.724C94.0475 25.4253 94.2622 25.0427 94.2622 24.576C94.2622 24.072 94.0008 23.6987 93.4782 23.456C92.9742 23.1947 92.1622 22.9147 91.0422 22.616C89.8848 22.336 88.9328 22.0467 88.1862 21.748C87.4582 21.4493 86.8235 20.992 86.2822 20.376C85.7595 19.76 85.4982 18.9293 85.4982 17.884C85.4982 17.0253 85.7408 16.2413 86.2262 15.532C86.7302 14.8227 87.4395 14.2627 88.3542 13.852C89.2875 13.4413 90.3795 13.236 91.6302 13.236C93.4782 13.236 94.9528 13.7027 96.0542 14.636C97.1555 15.5507 97.7622 16.792 97.8742 18.36H94.1222C94.0662 17.744 93.8048 17.2587 93.3382 16.904C92.8902 16.5307 92.2835 16.344 91.5182 16.344C90.8088 16.344 90.2582 16.4747 89.8662 16.736C89.4928 16.9973 89.3062 17.3613 89.3062 17.828C89.3062 18.3507 89.5675 18.752 90.0902 19.032C90.6128 19.2933 91.4248 19.564 92.5262 19.844C93.6462 20.124 94.5702 20.4133 95.2982 20.712C96.0262 21.0107 96.6515 21.4773 97.1742 22.112C97.7155 22.728 97.9955 23.5493 98.0142 24.576C98.0142 25.472 97.7622 26.2747 97.2582 26.984C96.7728 27.6933 96.0635 28.2533 95.1302 28.664C94.2155 29.056 93.1422 29.252 91.9102 29.252ZM105.325 16.708V24.212C105.325 24.7347 105.447 25.1173 105.689 25.36C105.951 25.584 106.38 25.696 106.977 25.696H108.797V29H106.333C103.029 29 101.377 27.3947 101.377 24.184V16.708H99.5292V13.488H101.377V9.652H105.325V13.488H108.797V16.708H105.325ZM122.542 9.456V23.176C122.542 25.08 121.991 26.564 120.89 27.628C119.789 28.6733 118.314 29.196 116.466 29.196C114.599 29.196 113.087 28.6547 111.93 27.572C110.791 26.4893 110.222 24.9773 110.222 23.036H114.142C114.161 23.876 114.357 24.5293 114.73 24.996C115.122 25.4627 115.682 25.696 116.41 25.696C117.119 25.696 117.661 25.472 118.034 25.024C118.407 24.576 118.594 23.96 118.594 23.176V9.456H122.542ZM133.532 29.252C132.039 29.252 130.695 28.9253 129.5 28.272C128.305 27.6 127.363 26.6573 126.672 25.444C126 24.2307 125.664 22.8307 125.664 21.244C125.664 19.6573 126.009 18.2573 126.7 17.044C127.409 15.8307 128.371 14.8973 129.584 14.244C130.797 13.572 132.151 13.236 133.644 13.236C135.137 13.236 136.491 13.572 137.704 14.244C138.917 14.8973 139.869 15.8307 140.56 17.044C141.269 18.2573 141.624 19.6573 141.624 21.244C141.624 22.8307 141.26 24.2307 140.532 25.444C139.823 26.6573 138.852 27.6 137.62 28.272C136.407 28.9253 135.044 29.252 133.532 29.252ZM133.532 25.836C134.241 25.836 134.904 25.668 135.52 25.332C136.155 24.9773 136.659 24.4547 137.032 23.764C137.405 23.0733 137.592 22.2333 137.592 21.244C137.592 19.7693 137.2 18.64 136.416 17.856C135.651 17.0533 134.708 16.652 133.588 16.652C132.468 16.652 131.525 17.0533 130.76 17.856C130.013 18.64 129.64 19.7693 129.64 21.244C129.64 22.7187 130.004 23.8573 130.732 24.66C131.479 25.444 132.412 25.836 133.532 25.836ZM147.949 15.756C148.453 15.0093 149.143 14.4027 150.021 13.936C150.917 13.4693 151.934 13.236 153.073 13.236C154.398 13.236 155.593 13.5627 156.657 14.216C157.739 14.8693 158.589 15.8027 159.205 17.016C159.839 18.2107 160.157 19.6013 160.157 21.188C160.157 22.7747 159.839 24.184 159.205 25.416C158.589 26.6293 157.739 27.572 156.657 28.244C155.593 28.916 154.398 29.252 153.073 29.252C151.915 29.252 150.898 29.028 150.021 28.58C149.162 28.1133 148.471 27.516 147.949 26.788V29H144.029V8.28H147.949V15.756ZM156.153 21.188C156.153 20.2547 155.957 19.452 155.565 18.78C155.191 18.0893 154.687 17.5667 154.053 17.212C153.437 16.8573 152.765 16.68 152.037 16.68C151.327 16.68 150.655 16.8667 150.021 17.24C149.405 17.5947 148.901 18.1173 148.509 18.808C148.135 19.4987 147.949 20.3107 147.949 21.244C147.949 22.1773 148.135 22.9893 148.509 23.68C148.901 24.3707 149.405 24.9027 150.021 25.276C150.655 25.6307 151.327 25.808 152.037 25.808C152.765 25.808 153.437 25.6213 154.053 25.248C154.687 24.8747 155.191 24.3427 155.565 23.652C155.957 22.9613 156.153 22.14 156.153 21.188ZM168.47 29.252C167.201 29.252 166.062 29.028 165.054 28.58C164.046 28.1133 163.244 27.488 162.646 26.704C162.068 25.92 161.75 25.052 161.694 24.1H165.642C165.717 24.6973 166.006 25.192 166.51 25.584C167.033 25.976 167.677 26.172 168.442 26.172C169.189 26.172 169.768 26.0227 170.178 25.724C170.608 25.4253 170.822 25.0427 170.822 24.576C170.822 24.072 170.561 23.6987 170.038 23.456C169.534 23.1947 168.722 22.9147 167.602 22.616C166.445 22.336 165.493 22.0467 164.746 21.748C164.018 21.4493 163.384 20.992 162.842 20.376C162.32 19.76 162.058 18.9293 162.058 17.884C162.058 17.0253 162.301 16.2413 162.786 15.532C163.29 14.8227 164 14.2627 164.914 13.852C165.848 13.4413 166.94 13.236 168.19 13.236C170.038 13.236 171.513 13.7027 172.614 14.636C173.716 15.5507 174.322 16.792 174.434 18.36H170.682C170.626 17.744 170.365 17.2587 169.898 16.904C169.45 16.5307 168.844 16.344 168.078 16.344C167.369 16.344 166.818 16.4747 166.426 16.736C166.053 16.9973 165.866 17.3613 165.866 17.828C165.866 18.3507 166.128 18.752 166.65 19.032C167.173 19.2933 167.985 19.564 169.086 19.844C170.206 20.124 171.13 20.4133 171.858 20.712C172.586 21.0107 173.212 21.4773 173.734 22.112C174.276 22.728 174.556 23.5493 174.574 24.576C174.574 25.472 174.322 26.2747 173.818 26.984C173.333 27.6933 172.624 28.2533 171.69 28.664C170.776 29.056 169.702 29.252 168.47 29.252ZM179.057 29.196C178.348 29.196 177.76 28.9813 177.293 28.552C176.845 28.104 176.621 27.5533 176.621 26.9C176.621 26.2467 176.845 25.7053 177.293 25.276C177.76 24.828 178.348 24.604 179.057 24.604C179.748 24.604 180.317 24.828 180.765 25.276C181.213 25.7053 181.437 26.2467 181.437 26.9C181.437 27.5533 181.213 28.104 180.765 28.552C180.317 28.9813 179.748 29.196 179.057 29.196ZM186.112 11.64C185.421 11.64 184.843 11.4253 184.376 10.996C183.928 10.548 183.704 9.99733 183.704 9.344C183.704 8.69067 183.928 8.14933 184.376 7.72C184.843 7.272 185.421 7.048 186.112 7.048C186.803 7.048 187.372 7.272 187.82 7.72C188.287 8.14933 188.52 8.69067 188.52 9.344C188.52 9.99733 188.287 10.548 187.82 10.996C187.372 11.4253 186.803 11.64 186.112 11.64ZM188.044 13.488V29H184.124V13.488H188.044ZM198.334 29.252C196.841 29.252 195.497 28.9253 194.302 28.272C193.108 27.6 192.165 26.6573 191.474 25.444C190.802 24.2307 190.466 22.8307 190.466 21.244C190.466 19.6573 190.812 18.2573 191.502 17.044C192.212 15.8307 193.173 14.8973 194.386 14.244C195.6 13.572 196.953 13.236 198.446 13.236C199.94 13.236 201.293 13.572 202.506 14.244C203.72 14.8973 204.672 15.8307 205.362 17.044C206.072 18.2573 206.426 19.6573 206.426 21.244C206.426 22.8307 206.062 24.2307 205.334 25.444C204.625 26.6573 203.654 27.6 202.422 28.272C201.209 28.9253 199.846 29.252 198.334 29.252ZM198.334 25.836C199.044 25.836 199.706 25.668 200.322 25.332C200.957 24.9773 201.461 24.4547 201.834 23.764C202.208 23.0733 202.394 22.2333 202.394 21.244C202.394 19.7693 202.002 18.64 201.218 17.856C200.453 17.0533 199.51 16.652 198.39 16.652C197.27 16.652 196.328 17.0533 195.562 17.856C194.816 18.64 194.442 19.7693 194.442 21.244C194.442 22.7187 194.806 23.8573 195.534 24.66C196.281 25.444 197.214 25.836 198.334 25.836Z" fill="white"/>
</svg>
